<svg width="16" height="16" viewBox="0 0 16 16" fill="none" xmlns="http://www.w3.org/2000/svg">
<path d="M8 0C3.58172 0 0 3.58172 0 8C0 12.4183 3.58172 16 8 16C12.4183 16 16 12.4183 16 8C16 3.58172 12.4183 0 8 0ZM11.9747 4.82828C12.0167 4.82828 12.2147 4.84561 12.31 4.91561C12.3633 4.95501 12.4 5.01201 12.4114 5.07668C12.422 5.13868 12.436 5.28068 12.4247 5.39201C12.2247 6.65868 11.7827 9.66801 11.5133 11.1421C11.4013 11.7421 11.1747 11.9421 10.9533 11.9621C10.4873 11.9954 10.1433 11.6614 9.7133 11.3621C9.0073 10.8994 8.6313 10.6221 7.9433 10.1621C7.1533 9.6321 7.6447 9.34277 8.0713 8.89877C8.189 8.77744 10.1733 6.97411 10.2133 6.81811C10.218 6.80478 10.2213 6.75078 10.1833 6.71945C10.1447 6.68811 10.086 6.69811 10.0413 6.70545C9.9707 6.71678 8.8053 7.46411 6.5487 8.94944C6.17 9.20011 5.8273 9.32344 5.5213 9.31944C5.1847 9.31478 4.5353 9.13078 4.042 8.97478C3.442 8.78611 2.9733 8.68611 3.0073 8.35878C3.0253 8.19278 3.2513 8.02411 3.5993 7.85478C5.9513 6.79611 7.5387 6.09945 8.3613 5.77145C10.7193 4.82145 11.2273 4.64945 11.5507 4.64945L11.9747 4.82828Z" fill="black"/>
</svg>